# xmcd
#
# Track frame offsets: 
#        150
#        13325
#        24322
#        38935
#        52072
#        63452
#        75275
#        83090
#        95422
#        106050
#        116670
#        131985
#        148692
#        157695
#        169417
#        185292
#        196567
#        207580
#        219162
#        229090
#        245047
#        262965
#        277427
#        288685
#        301037
#
# Disc length: 4166 seconds
#
# Revision: 0
# Processed by: cddbd v1.5.2PL0 Copyright (c) Steve Scherf et al.
# Submitted via: ExactAudioCopy v0.95b4
#
DISCID=65104419
DTITLE=Various Artist - Soul Man - The Legends
DYEAR=1900
DGENRE=Soul
TTITLE0=Sam and Dave - Soul Man
TTITLE1=Sam and Dave - You don't Know What You Mean To Me
TTITLE2=Sam and Dave - When Someting Is Wrong With My Baby
TTITLE3=Percy Sledge - When A Man Loves A Woman
TTITLE4=Rufus Thomas - When A Man Loves A Woman
TTITLE5=Drifters - Up On The Roof
TTITLE6=James Brown - Try Me
TTITLE7=Dobie Grey - The In Crowd
TTITLE8=Brook Benton - Thank Thank You Pretty Baby
TTITLE9=Drifters - Dance With Me
TTITLE10=Rufus Thomas - Do the Funky Chicken
TTITLE11=James Brown - Doin' It Till Death (Funky Good Time)
TTITLE12=Gladys Knight and The Pips - Every Beat Of My Heart
TTITLE13=Sam and Dave - Hold On I'm Comin
TTITLE14=James Brown - I Got The Feelin'
TTITLE15=Gladys Knight and The Pips - I Want That Kind Of Love
TTITLE16=Brook Benton - It's Just A Matter Of Time
TTITLE17=Brook Benton - Kiddio
TTITLE18=Gladys Knight and The Pips - Operator
TTITLE19=James Brown/ Please. Please, Please
TTITLE20=Brook Benton - Rainy Day In Georgia
TTITLE21=George McCray - Rock Your Baby
TTITLE22=Drifters - Save The Last dance For Me
TTITLE23=Glays Knight and The Pips - Come See About Me
TTITLE24=Maxime Brown - All In My Mind
EXTD=
EXTT0=
EXTT1=
EXTT2=
EXTT3=
EXTT4=
EXTT5=
EXTT6=
EXTT7=
EXTT8=
EXTT9=
EXTT10=
EXTT11=
EXTT12=
EXTT13=
EXTT14=
EXTT15=
EXTT16=
EXTT17=
EXTT18=
EXTT19=
EXTT20=
EXTT21=
EXTT22=
EXTT23=
EXTT24=
PLAYORDER=
